<svg width="1067" height="1063" viewBox="0 0 1067 1063" fill="none" xmlns="http://www.w3.org/2000/svg">
<rect y="1" width="1061" height="1061" rx="332" fill="#7758AC"/>
<path d="M515.538 781.909C608.702 781.909 696.335 670.114 727 517.793V910.084H334.817V517.793C414.237 518.24 407.241 781.909 515.538 781.909Z" fill="#BDD28A"/>
<path d="M468.816 350.144C469.571 351.947 471.313 353.026 473.146 353.026C473.747 353.026 474.364 352.902 474.965 352.656C477.353 351.654 478.493 348.896 477.476 346.507C477.245 345.968 454.023 292.544 388.903 314.009C349.07 327.138 342.999 317.091 342.953 316.999C343.045 317.199 343.061 317.338 343.061 317.338L334 319.834C334.2 320.558 335.464 324.303 340.641 327.092C350.411 332.315 367.639 330.929 391.831 322.947C396.808 321.298 401.493 320.158 405.915 319.418C401.123 323.887 398.103 330.235 398.103 337.293C398.103 350.791 409.09 361.778 422.588 361.778C436.087 361.778 447.074 350.791 447.074 337.293C447.074 332.315 445.579 327.693 443.021 323.825C461.065 332.624 468.308 349.019 468.785 350.144H468.816ZM422.619 354.058C413.373 354.058 405.854 346.538 405.854 337.293C405.854 328.047 413.373 320.527 422.619 320.527C431.865 320.527 439.384 328.047 439.384 337.293C439.384 346.538 431.865 354.058 422.619 354.058Z" fill="#EBE5DD"/>
<path d="M646.239 646.727C643.912 644.847 641.57 642.982 639.243 641.133C620.69 626.386 603.17 612.456 600.766 596.061C598.285 579.218 617.1 558.724 638.873 535.009C671.449 499.521 711.975 455.358 698.045 400.701C684.731 348.433 651.278 333.455 608.948 314.501C589.671 305.872 567.836 296.087 545.215 281.371C517.078 263.05 502.824 237.162 502.824 204.386C502.824 179.531 511.438 159.807 511.53 159.607C512.578 157.234 511.53 154.46 509.142 153.412C506.769 152.349 503.995 153.412 502.932 155.801C502.547 156.664 493.502 177.281 493.425 204.047C493.425 208.023 493.609 212.276 494.103 216.683C493.779 217.315 493.579 218.024 493.579 218.794C493.579 246.284 481.96 562.746 481.837 565.935L481.76 568.077L483.316 569.541C484.056 570.235 496.876 581.869 520.021 578.802C519.774 591.407 519.944 606.524 520.607 624.583C515.09 617.603 506.507 612.148 493.671 612.148C467.383 612.148 459.632 634.923 459.216 646.973C459.216 647.204 459.216 647.435 459.247 647.651C459.247 647.667 459.247 647.682 459.247 647.697C459.277 647.898 459.308 648.113 459.354 648.314C459.524 648.961 463.638 664.463 473.392 679.718C485.828 699.149 501.838 709.304 519.898 709.304C521.285 709.304 522.671 709.242 524.074 709.119C543.459 707.47 560.686 696.375 573.892 677.037C583.662 662.737 587.791 649.038 587.961 648.468C588.269 647.451 588.207 646.357 587.807 645.355C586.019 640.933 569.685 602.332 548.729 608.034C540.67 610.237 534.49 616.632 529.945 623.566C529.297 605.337 529.128 589.82 529.436 576.814C536.863 574.719 545.138 571.144 554.199 565.458C570.517 555.226 571.211 540.525 566.85 531.049C562.196 520.94 550.254 512.958 536.447 517.273C527.957 519.923 521.855 531.249 520.283 569.187C504.704 571.683 494.919 566.382 491.283 563.855C492.269 537.043 499.989 326.105 502.3 246.777C509.157 261.724 520.807 276.687 540.053 289.215C563.275 304.331 585.48 314.27 605.065 323.038C646.655 341.653 676.703 355.105 688.892 402.982C701.558 452.708 664.545 493.034 631.893 528.614C608.501 554.101 588.284 576.121 591.412 597.386C594.356 617.464 613.294 632.519 633.341 648.452C635.653 650.286 637.964 652.135 640.291 654C641.154 654.709 642.202 655.048 643.234 655.048C644.605 655.048 645.961 654.447 646.901 653.306C648.535 651.288 648.211 648.329 646.193 646.696L646.239 646.727ZM530.962 551.821C533.381 529.785 537.942 526.703 539.283 526.287C540.916 525.779 542.503 525.548 544.029 525.548C550.578 525.548 555.956 529.847 558.344 535.024C561.241 541.327 560.378 550.557 549.237 557.537C542.149 561.975 535.677 564.98 529.821 566.906C530.099 561.328 530.469 556.305 530.962 551.836V551.821ZM523.288 699.75C497.631 701.938 482.191 678.639 474.502 662.013C485.134 668.947 501.638 676.328 523.688 676.328C547.141 676.328 563.183 667.884 572.767 660.456C564.955 675.665 549.314 697.547 523.303 699.75H523.288ZM551.24 617.11C559.993 614.721 570.826 631.363 576.681 643.429C576.465 643.645 576.265 643.86 576.08 644.122C575.418 645.047 559.5 666.928 523.704 666.928C492.777 666.928 473.762 650.348 468.8 645.432C469.124 642.951 470.002 638.359 472.345 633.86C476.613 625.677 483.778 621.532 493.671 621.532C517.556 621.532 519.728 646.403 519.805 647.451C519.959 649.747 521.762 651.58 524.043 651.796C526.323 652.012 528.435 650.563 529.035 648.345C531.07 640.794 539.036 620.438 551.24 617.11Z" fill="#EBE5DD"/>
</svg>
